<?xml version="1.0" ?><!-- Uploaded to: SVG Repo, www.svgrepo.com, Generator: SVG Repo Mixer Tools -->
<svg fill="#000000" width="800px" height="800px" viewBox="0 0 32 32" id="Outline" xmlns="http://www.w3.org/2000/svg"><path d="M16,10.42H13.58A.76.76,0,0,1,13.32,9l.16-.06a.75.75,0,0,1,.26,0H16a.75.75,0,0,1,.75.75v.07A.76.76,0,0,1,16,10.42Zm-2.42-.76h0Z"/><path d="M16,29H6.67A.76.76,0,0,1,6,27.89L9,23l-1.43-3a.74.74,0,0,1,0-.72A.73.73,0,0,1,8.27,19H16a.75.75,0,0,1,.75.75v8.56A.76.76,0,0,1,16,29Zm-8-1.5h7.24V20.48H9.46l1.09,2.27a.77.77,0,0,1,0,.72Z"/><path d="M16,23.83H9.87a.75.75,0,1,1,0-1.5H16a.75.75,0,0,1,0,1.5Z"/><path d="M23.73,20.48H8.27a.76.76,0,0,1-.68-.43l-3.33-7a.76.76,0,0,1,0-.61A.73.73,0,0,1,4.69,12L13.33,9a.78.78,0,0,1,.37,0h4.62a.7.7,0,0,1,.35,0L27.31,12a.73.73,0,0,1,.44.42.76.76,0,0,1,0,.61l-3.33,7A.76.76,0,0,1,23.73,20.48ZM8.74,19H23.26L26,13.15l-7.71-2.73H13.68L6,13.15Z"/><path d="M18.42,10.42H16a.76.76,0,0,1-.75-.75A.81.81,0,0,1,16,8.85h2.26a.75.75,0,0,1,.26,0l.16.06a.75.75,0,0,1,.49.71h0A.76.76,0,0,1,18.42,10.42Z"/><path d="M25.33,29H16a.76.76,0,0,1-.75-.75V19.73A.75.75,0,0,1,16,19h7.73a.73.73,0,0,1,.63.35.74.74,0,0,1,.05.72L23,23l3,4.86A.76.76,0,0,1,25.33,29Zm-8.58-1.5H24l-2.5-4.07a.77.77,0,0,1,0-.72l1.09-2.27H16.75Z"/><path d="M22.13,23.83H16a.75.75,0,0,1,0-1.5h6.13a.75.75,0,0,1,0,1.5Z"/><path d="M18.42,10.42H13.58a.76.76,0,0,1-.75-.75V7.86a.75.75,0,0,1,.75-.75h4.84a.75.75,0,0,1,.75.75V9.67A.76.76,0,0,1,18.42,10.42Zm-4.09-1.5h3.34V8.61H14.33Z"/><path d="M16,8.61a.76.76,0,0,1-.75-.75,4.4,4.4,0,0,0-.41-1.63,2.36,2.36,0,0,1,.09-2.65A1.73,1.73,0,0,1,16.19,3a2.94,2.94,0,0,1,2,1,.75.75,0,0,1,0,1.06A.75.75,0,0,1,17.1,5a1.94,1.94,0,0,0-.88-.52s-.07,0-.15.1-.13.36.17,1.12a5.88,5.88,0,0,1,.51,2.18A.76.76,0,0,1,16,8.61Z"/></svg>