<?xml version="1.0" encoding="utf-8"?>
<!-- Uploaded to: SVG Repo, www.svgrepo.com, Generator: SVG Repo Mixer Tools -->
<!DOCTYPE svg PUBLIC "-//W3C//DTD SVG 1.1//EN" "http://www.w3.org/Graphics/SVG/1.1/DTD/svg11.dtd">
<svg fill="#000000" width="800px" height="800px" viewBox="0 0 1000 1000" version="1.1" xmlns="http://www.w3.org/2000/svg" xmlns:xlink="http://www.w3.org/1999/xlink"  enable-background="new 0 0 1000 1000" xml:space="preserve">

<g>
<g transform="translate(0.000000,511.000000) scale(0.100000,-0.100000)">
<path d="M4413.1,3277.5c-1230.6-59.4-2043.8-219.6-2316.8-461c-37.6-31.6-77.2-75.2-87.1-93c-9.9-19.8-130.6-532.2-267.1-1141.6C1605.6,974.5,1488.9,464.1,1483,446.3c-5.9-21.8-87.1-57.4-231.5-104.9C679.7,155.4,301.8-97.8,155.4-400.5C102-505.4,100-525.1,100-788.3c0-259.2,4-288.9,61.3-449.1c195.9-546.1,710.3-1017,1442.3-1321.6c999.1-413.5,2631.4-589.6,4421.9-472.9C7659.8-2927,8813.3-2549.1,9438.5-1916c186,189.9,278.9,322.5,360.1,524.3c116.7,292.8,136.5,688.5,39.6,896.2c-126.6,279-530.2,559.9-1092.1,765.7c-97,35.6-187.9,75.2-201.8,87.1c-11.9,11.9-138.5,530.2-282.9,1149.5c-142.5,621.2-277,1165.3-298.8,1212.8c-118.7,265.1-829,463-1936.9,536.2C5578.4,3285.4,4800.9,3297.3,4413.1,3277.5z M5857.4,2921.4c561.9-37.6,1084.2-110.8,1448.3-207.7c180-47.5,362.1-120.7,362.1-146.4c0-55.4-405.6-176.1-831-247.3c-589.6-100.9-906.2-120.7-1879.6-120.7c-973.4,0-1295.9,21.8-1879.6,120.7c-431.3,73.2-831,191.9-831,249.3c0,25.7,188,112.8,340.3,154.3c304.7,85.1,999.1,180,1499.7,203.8C4419,2943.1,5574.5,2939.2,5857.4,2921.4z M2454.4,2181.4c528.3-182,1341.4-269.1,2532.5-269.1c1206.9,0,2067.5,93,2562.1,277c93,33.6,182,65.3,199.8,71.2c25.7,9.9,89-237.4,393.7-1539.3c397.7-1699.5,383.8-1658,526.3-1658c71.2,0,146.4,73.2,146.4,142.5c0,19.8-41.5,201.8-91,403.6c-51.4,199.8-87.1,370-81.1,375.9c15.8,15.8,296.8-100.9,488.7-201.8c310.6-166.2,474.8-330.4,474.8-478.8c0-320.5-631.2-672.7-1624.3-902.2c-876.5-201.8-1820.2-294.8-2995.4-294.8c-391.7,0-862.6,9.9-1048.6,23.7c-1266.2,89-2330.7,306.7-2967.7,603.4C104-859.5,175.2-432.2,1176.3-38.4c100.9,39.6,188,69.2,193.9,63.3c5.9-4-27.7-174.1-71.2-377.9c-45.5-201.8-81.1-385.8-81.1-405.6c0-49.5,91-118.7,156.3-118.7c59.4,0,134.5,59.4,158.3,124.6c7.9,23.8,162.2,714.2,340.3,1533.3c267.1,1226.7,330.4,1487.8,354.2,1479.9C2242.7,2254.6,2345.6,2219,2454.4,2181.4z M9408.8-1427.3c0-35.6-118.7-197.9-219.6-298.8c-170.2-172.1-403.6-332.4-680.6-468.9c-623.2-306.7-1420.5-482.7-2542.4-561.9c-391.7-27.7-1519.5-27.7-1929,0c-1476,98.9-2540.4,423.4-3171.5,967.5c-124.6,108.8-300.7,308.7-300.7,344.3c0,7.9,77.2-27.7,172.1-75.2c666.7-344.3,1705.4-573.8,3102.3-686.5c472.9-37.6,1893.4-31.7,2384.1,9.9c445.2,39.6,910.1,97,1242.5,154.3c745.9,126.6,1477.9,358.1,1834.1,577.7C9387-1411.5,9408.8-1403.6,9408.8-1427.3z"/>
</g>
</g>
</svg>