<?xml version="1.0" encoding="utf-8"?>

<!DOCTYPE svg PUBLIC "-//W3C//DTD SVG 1.1//EN" "http://www.w3.org/Graphics/SVG/1.1/DTD/svg11.dtd">
<!-- Uploaded to: SVG Repo, www.svgrepo.com, Generator: SVG Repo Mixer Tools -->
<svg height="800px" width="800px" version="1.1" id="_x32_" xmlns="http://www.w3.org/2000/svg" xmlns:xlink="http://www.w3.org/1999/xlink" 
	 viewBox="0 0 512 512"  xml:space="preserve">
<style type="text/css">
	.st0{fill:#000000;}
</style>
<g>
	<path class="st0" d="M403.801,256l44.896-77.76l29.007-50.237H419.69h-89.791l-44.896-77.758L255.996,0l-29.006,50.245
		l-44.88,77.758h-89.8H34.296l29.007,50.237L108.199,256l-44.896,77.759l-29.007,50.238H92.31h89.8l44.88,77.758L255.996,512
		l29.008-50.245l44.896-77.758h89.791h58.014l-29.007-50.238L403.801,256z M419.69,161.498l-39.938,69.192l-39.953-69.192H419.69z
		 M255.996,66.988l39.945,69.192h-79.89L255.996,66.988z M92.31,161.498h79.891l-39.946,69.192L92.31,161.498z M92.31,350.502
		l39.945-69.192l39.946,69.192H92.31z M255.996,445.012l-39.945-69.192h79.89L255.996,445.012z M310.569,350.502H201.44L146.875,256
		l54.565-94.502h109.129L365.125,256L310.569,350.502z M339.799,350.502l39.953-69.192l39.938,69.192H339.799z"/>
</g>
</svg>